<svg width="642" height="105" viewBox="0 0 642 105" fill="none" xmlns="http://www.w3.org/2000/svg">
<path d="M27.5933 28.1569L43.5838 0.432617L56.8726 35.5147L37.9813 68.2685L0.615234 74.9317L16.5432 47.3156C19.0024 43.052 32.4143 43.6434 32.4143 43.6434C32.4143 43.6434 25.0629 32.5442 27.5933 28.1569Z" fill="#00AEEF"/>
<path d="M66.7462 75.7073L50.7557 103.432L37.4668 68.3496L56.3582 35.5957L93.7242 28.9326L77.7962 56.5486C75.3371 60.8124 61.9251 60.2208 61.9251 60.2208C61.9251 60.2208 69.2766 71.32 66.7462 75.7073Z" fill="#0081B0"/>
<path d="M628.517 45.2637V46.7109H625.296V54.3721H623.714V46.7109H620.516V45.2637H628.517ZM641.152 45.2637V54.3721H639.568V46.8699L636.174 54.3721H635.131L631.842 46.8699V54.3721H630.268V45.2637H632.834L635.658 51.5722L638.64 45.2637H641.152Z" fill="#083F57"/>
<path d="M120.667 104.762C116.521 104.762 112.515 104.117 108.649 102.827C104.839 101.481 101.842 99.686 99.657 97.4426C98.9287 96.8257 98.5645 96.0125 98.5645 95.003C98.5645 94.386 98.7325 93.8533 99.0687 93.4046C99.4608 92.9559 99.8811 92.7316 100.329 92.7316C100.89 92.7316 101.534 93.012 102.262 93.5728C107.529 97.9474 113.664 100.135 120.667 100.135C125.766 100.135 129.687 99.1252 132.433 97.1061C135.234 95.0311 136.636 92.1146 136.636 88.357C136.636 86.1697 135.963 84.403 134.619 83.057C133.274 81.711 131.565 80.6734 129.491 79.9443C127.419 79.1591 124.645 78.374 121.172 77.5888C116.577 76.5793 112.851 75.5417 109.994 74.4761C107.193 73.4105 104.812 71.8121 102.851 69.6809C100.89 67.4936 99.9091 64.5773 99.9091 60.9317C99.9091 57.6227 100.778 54.7064 102.514 52.1826C104.307 49.6028 106.801 47.6117 109.994 46.2096C113.188 44.8075 116.857 44.1064 121.003 44.1064C124.869 44.1064 128.511 44.7514 131.929 46.0414C135.346 47.2752 138.176 49.0699 140.417 51.4254C141.146 52.1545 141.51 52.9678 141.51 53.8651C141.51 54.4821 141.314 55.0148 140.921 55.4635C140.585 55.9122 140.193 56.1365 139.744 56.1365C139.185 56.1365 138.54 55.8561 137.812 55.2953C134.787 52.8275 132.04 51.117 129.576 50.1636C127.166 49.2101 124.309 48.7334 121.003 48.7334C116.017 48.7334 112.123 49.799 109.322 51.9302C106.52 54.0615 105.12 57.0338 105.12 60.8476C105.12 63.1471 105.736 65.0259 106.969 66.4841C108.201 67.8862 109.798 69.0079 111.759 69.8492C113.776 70.6904 116.353 71.5036 119.491 72.2888L121.676 72.7936C126.214 73.9153 129.8 74.9528 132.433 75.9063C135.066 76.8597 137.28 78.3459 139.072 80.365C140.921 82.328 141.846 84.9919 141.846 88.357C141.846 91.5538 140.949 94.4141 139.157 96.9379C137.419 99.4056 134.927 101.341 131.676 102.743C128.483 104.089 124.813 104.762 120.667 104.762Z" fill="#083F57"/>
<path d="M154.821 104.509C154.038 104.509 153.393 104.285 152.889 103.836C152.44 103.331 152.217 102.658 152.217 101.817V47.3872C152.217 46.6582 152.468 46.0412 152.973 45.5364C153.534 45.0317 154.206 44.7793 154.99 44.7793H174.655C180.819 44.7793 185.581 46.2655 188.942 49.238C192.361 52.2105 194.069 56.4168 194.069 61.857C194.069 67.3533 192.361 71.6157 188.942 74.6442C185.525 77.6167 180.763 79.1029 174.655 79.1029H157.427V101.817C157.427 102.658 157.175 103.331 156.67 103.836C156.223 104.285 155.606 104.509 154.821 104.509ZM174.319 74.6442C184.012 74.6442 188.859 70.3818 188.859 61.857C188.859 53.4443 184.012 49.238 174.319 49.238H157.427V74.6442H174.319Z" fill="#083F57"/>
<path d="M207.319 104.088C206.534 104.088 205.862 103.836 205.302 103.331C204.798 102.827 204.545 102.21 204.545 101.481V47.3872C204.545 46.6582 204.798 46.0412 205.302 45.5364C205.862 45.0317 206.534 44.7793 207.319 44.7793H239.255C239.983 44.7793 240.544 44.9756 240.935 45.3682C241.384 45.7607 241.608 46.3217 241.608 47.0507C241.608 47.7237 241.384 48.2566 240.935 48.6491C240.544 49.0417 239.983 49.238 239.255 49.238H209.672V71.6998H237.574C238.302 71.6998 238.863 71.8961 239.255 72.2887C239.703 72.6812 239.927 73.2421 239.927 73.9712C239.927 74.7003 239.703 75.2612 239.255 75.6537C238.863 76.0463 238.302 76.2426 237.574 76.2426H209.672V99.6298H239.255C239.983 99.6298 240.544 99.8261 240.935 100.219C241.384 100.555 241.608 101.088 241.608 101.817C241.608 102.546 241.384 103.107 240.935 103.5C240.544 103.892 239.983 104.088 239.255 104.088H207.319Z" fill="#083F57"/>
<path d="M295.987 44.3584C296.77 44.3584 297.359 44.6108 297.751 45.1155C298.2 45.5643 298.423 46.2092 298.423 47.0504V101.817C298.423 102.602 298.2 103.247 297.751 103.752C297.304 104.256 296.687 104.509 295.902 104.509C295.062 104.509 294.306 104.088 293.634 103.247L256.824 53.5282V101.817C256.824 102.602 256.599 103.247 256.151 103.752C255.703 104.256 255.115 104.509 254.386 104.509C253.545 104.509 252.93 104.285 252.537 103.836C252.145 103.331 251.949 102.658 251.949 101.817V47.0504C251.949 46.2652 252.173 45.6203 252.622 45.1155C253.126 44.6108 253.798 44.3584 254.639 44.3584C255.535 44.3584 256.262 44.779 256.824 45.6203L293.549 95.2549V47.0504C293.549 46.2652 293.774 45.6203 294.221 45.1155C294.67 44.6108 295.258 44.3584 295.987 44.3584Z" fill="#083F57"/>
<path d="M315.259 104.088C314.474 104.088 313.802 103.836 313.242 103.331C312.738 102.827 312.486 102.21 312.486 101.481V47.3872C312.486 46.6582 312.738 46.0412 313.242 45.5364C313.802 45.0317 314.474 44.7793 315.259 44.7793H331.563C340.92 44.7793 348.148 47.3312 353.246 52.4348C358.401 57.5384 360.978 64.8575 360.978 74.3918C360.978 83.9262 358.401 91.2732 353.246 96.433C348.148 101.537 340.92 104.088 331.563 104.088H315.259ZM331.312 99.5457C347.447 99.5457 355.515 91.1611 355.515 74.3918C355.515 57.6787 347.447 49.3221 331.312 49.3221H317.697V99.5457H331.312Z" fill="#083F57"/>
<path d="M445.725 47.6395C446.118 46.5177 446.733 45.6765 447.574 45.1157C448.471 44.5549 449.45 44.2744 450.516 44.2744C451.86 44.2744 453.009 44.695 453.961 45.5363C454.969 46.3776 455.473 47.4993 455.473 48.9014C455.473 49.4061 455.333 50.1352 455.054 51.0887L436.984 101.144C436.537 102.266 435.78 103.135 434.716 103.752C433.707 104.369 432.586 104.677 431.354 104.677C430.121 104.677 428.973 104.369 427.908 103.752C426.844 103.135 426.116 102.266 425.723 101.144L411.772 61.5203L397.57 101.144C397.121 102.266 396.365 103.135 395.3 103.752C394.291 104.369 393.172 104.677 391.938 104.677C390.706 104.677 389.557 104.369 388.493 103.752C387.485 103.135 386.784 102.266 386.391 101.144L368.323 51.0887C368.043 50.2474 367.902 49.5183 367.902 48.9014C367.902 47.4993 368.407 46.3776 369.415 45.5363C370.48 44.695 371.713 44.2744 373.113 44.2744C374.234 44.2744 375.242 44.5549 376.138 45.1157C377.036 45.6765 377.679 46.5177 378.072 47.6395L392.359 88.7773L407.066 47.8919C407.459 46.7701 408.102 45.9009 408.999 45.2839C409.895 44.6109 410.876 44.2744 411.94 44.2744C413.005 44.2744 413.985 44.6109 414.882 45.2839C415.834 45.9009 416.506 46.7982 416.899 47.976L431.186 89.2821L445.725 47.6395Z" fill="#083F57"/>
<path d="M511.523 97.6106C511.859 98.3397 512.027 99.0689 512.027 99.7979C512.027 101.088 511.495 102.182 510.431 103.079C509.423 103.976 508.246 104.425 506.902 104.425C506.004 104.425 505.164 104.201 504.38 103.752C503.596 103.247 502.979 102.49 502.531 101.48L497.489 90.2075H467.906L462.864 101.48C462.415 102.49 461.799 103.247 461.015 103.752C460.23 104.201 459.362 104.425 458.409 104.425C457.121 104.425 455.945 103.976 454.879 103.079C453.815 102.182 453.283 101.088 453.283 99.7979C453.283 99.0689 453.451 98.3397 453.787 97.6106L476.983 47.7236C477.487 46.6019 478.243 45.7606 479.251 45.1998C480.317 44.5828 481.436 44.2744 482.613 44.2744C483.79 44.2744 484.883 44.5828 485.891 45.1998C486.955 45.7606 487.74 46.6019 488.244 47.7236L511.523 97.6106ZM493.791 81.7948L482.698 56.8093L471.604 81.7948H493.791Z" fill="#083F57"/>
<path d="M531.042 104.509C529.361 104.509 528.016 104.032 527.008 103.079C526.055 102.069 525.578 100.752 525.578 99.125V53.6967H510.283C506.921 53.6967 505.24 52.2105 505.24 49.238C505.24 46.2655 506.921 44.7793 510.283 44.7793H551.716C555.077 44.7793 556.758 46.2655 556.758 49.238C556.758 52.2105 555.077 53.6967 551.716 53.6967H536.42V99.125C536.42 100.752 535.916 102.069 534.907 103.079C533.955 104.032 532.667 104.509 531.042 104.509Z" fill="#083F57"/>
<path d="M588.969 104.509C587.288 104.509 585.944 104.032 584.935 103.079C583.982 102.069 583.506 100.752 583.506 99.125V53.6967H568.21C564.849 53.6967 563.168 52.2105 563.168 49.238C563.168 46.2655 564.849 44.7793 568.21 44.7793H609.643C613.005 44.7793 614.686 46.2655 614.686 49.238C614.686 52.2105 613.005 53.6967 609.643 53.6967H594.348V99.125C594.348 100.752 593.844 102.069 592.835 103.079C591.882 104.032 590.593 104.509 588.969 104.509Z" fill="#083F57"/>
</svg>
